<svg id="Layer_1_copy" data-name="Layer 1 copy" xmlns="http://www.w3.org/2000/svg" viewBox="0 0 400 400"><defs><style>.cls-1{fill:#333;}.cls-2{fill:none;stroke:#333;stroke-miterlimit:10;stroke-width:20px;}</style></defs><title>AMlogo</title><path class="cls-1" d="M200,21A180,180,0,0,1,327.28,328.28,180,180,0,0,1,72.72,73.72,178.82,178.82,0,0,1,200,21m0-20C89.54,1,0,90.54,0,201S89.54,401,200,401s200-89.54,200-200S310.46,1,200,1Z"/><path class="cls-1" d="M138.55,136.22l50.17,140.52H88.38l50.17-140.52m0-59.48L60,296.74H217.09l-78.55-220Z"/><line class="cls-2" x1="98.03" y1="209.05" x2="180.44" y2="209.05"/><path class="cls-1" d="M261.45,136.22l50.17,140.52H211.29l50.17-140.52m0-59.48-78.55,220H340l-78.55-220Z"/></svg>